<svg xmlns:dc="http://purl.org/dc/elements/1.1/" xmlns:cc="http://creativecommons.org/ns#" xmlns:rdf="http://www.w3.org/1999/02/22-rdf-syntax-ns#" xmlns:svg="http://www.w3.org/2000/svg" xmlns="http://www.w3.org/2000/svg" xmlns:sodipodi="http://sodipodi.sourceforge.net/DTD/sodipodi-0.dtd" xmlns:inkscape="http://www.inkscape.org/namespaces/inkscape" viewBox="0 0 8.4666665 10.583333625" version="1.1" x="0px" y="0px"><g transform="translate(0,-288.53332)"><path style="color:#fff;font-style:normal;font-variant:normal;font-weight:normal;font-stretch:normal;font-size:medium;line-height:normal;font-family:sans-serif;font-variant-ligatures:normal;font-variant-position:normal;font-variant-caps:normal;font-variant-numeric:normal;font-variant-alternates:normal;font-feature-settings:normal;text-indent:0;text-align:start;text-decoration:none;text-decoration-line:none;text-decoration-style:solid;text-decoration-color:#fff;letter-spacing:normal;word-spacing:normal;text-transform:none;writing-mode:lr-tb;direction:ltr;text-orientation:mixed;dominant-baseline:auto;baseline-shift:baseline;text-anchor:start;white-space:normal;shape-padding:0;clip-rule:nonzero;display:inline;overflow:visible;visibility:visible;opacity:1;isolation:auto;mix-blend-mode:normal;color-interpolation:sRGB;color-interpolation-filters:linearRGB;solid-color:#fff;solid-opacity:1;vector-effect:none;fill:#fff;fill-opacity:1;fill-rule:nonzero;stroke:none;stroke-width:0.5291667;stroke-linecap:round;stroke-linejoin:round;stroke-miterlimit:4;stroke-dasharray:none;stroke-dashoffset:0;stroke-opacity:1;color-rendering:auto;image-rendering:auto;shape-rendering:auto;text-rendering:auto;enable-background:accumulate" d="M 1.7732868e-5,292.7713 A 0.26460982,0.26460982 0 0 0 0.26769773,293.03124 H 5.4487777 l -1.60713,1.60558 a 0.26460982,0.26460982 0 0 0 -0.0801,0.19121 0.26460982,0.26460982 0 0 0 0.45527,0.18345 l 2.05672,-2.05828 a 0.26460982,0.26460982 0 0 0 0,-0.3731 l -2.05672,-2.05879 a 0.26528594,0.26528594 0 0 0 -0.37517,0.37517 l 1.60558,1.60559 H 0.26769773 A 0.26460982,0.26460982 0 0 0 1.7732868e-5,292.7713 Z M 6.0818177,296.74005 a 0.26460982,0.26460982 0 0 0 0.26975,0.25994 h 1.85157 a 0.26460982,0.26460982 0 0 0 0.26355,-0.26355 v -7.9375 a 0.26460982,0.26460982 0 0 0 -0.26355,-0.26562 h -1.85157 a 0.26464845,0.26464845 0 1 0 0,0.52917 h 1.58595 v 7.40833 h -1.58595 a 0.26460982,0.26460982 0 0 0 -0.26975,0.26923 z"/></g></svg>